
Language.....: English -(GREETZ TO THE GREATZ:
[b][color=#FF0000] 
http://www.SEEDBOXWORLD.biz( for your cheap fast seedbox needs )

BadGirl2k9  	 	 	
UnDeaD 
algpz500 			
virusofsaten 	 		
WICCYWOLF	
FoxyB 			 		
Joker321[/color][/b]
 
http://www.imdb.com/title/tt1418646/


Beneath.Hill.60.DVDRip.X264.SDTeam

The extraordinary true story of Oliver Woodward. It's 1916 and Woodward must tear himself from his new young love to go to the mud and carnage of the Western Front. Deep beneath the German lines. Woodward and his secret platoon of Australian tunnelers fight to defend a leaking, labyrinthine tunnel system packed with enough high explosives to change the course of the War

Format                           : Matroska
File size                        : 529 MiB
Duration                         : 1h 57mn
Overall bit rate                 : 631 Kbps
Video
ID                               : 1
Format                           : AVC
Format/Info                      : Advanced Video Codec
Format profile                   : High@L2.1
Format settings, CABAC           : Yes
Format settings, ReFrames        : 4 frames
Muxing mode                      : Container profile=Unknown@2.1
Codec ID                         : V_MPEG4/ISO/AVC
Duration                         : 1h 57mn
Bit rate                         : 486 Kbps
Nominal bit rate                 : 500 Kbps
Width                            : 624 pixels
Height                           : 256 pixels
Display aspect ratio             : 2.40:1
Frame rate mode                  : Variable
Frame rate                       : 25.000 fps
Resolution                       : 8 bits
Colorimetry                      : 4:2:0
Scan type                        : Progressive
Bits/(Pixel*Frame)               : 0.122
Stream size                      : 407 MiB (77%)

Audio
ID                               : 2
Format                           : MPEG Audio
Format version                   : Version 1
Format profile                   : Layer 3
Format_Settings_Mode             : Joint stereo
Format_Settings_ModeExtension    : MS Stereo
Codec ID                         : A_MPEG/L3
Codec ID/Hint                    : MP3
Duration                         : 1h 57mn
Bit rate mode                    : Variable
Bit rate                         : 133 Kbps
Minimum bit rate                 : 128 Kbps
Channel(s)                       : 2 channels
Sampling rate                    : 48.0 KHz
Stream size                      : 111 MiB (21%)
Writing library                  : LAME3.97 
Encoding settings                : -m j -V 4 -q 3 -lowpass 17.5 --vbr-new -b 128






group note: Thanx seedboxworld.biz for the seedbox  
